<?xml version="1.0" encoding="utf-8"?>
<!-- Generator: Adobe Illustrator 25.4.1, SVG Export Plug-In . SVG Version: 6.00 Build 0)  -->
<svg version="1.1" id="Layer_1" xmlns="http://www.w3.org/2000/svg" xmlns:xlink="http://www.w3.org/1999/xlink" x="0px" y="0px"
	 viewBox="0 0 8815 2289" style="enable-background:new 0 0 8815 2289;" xml:space="preserve">
<style type="text/css">
	.st0{fill:#E92D2F;}
	.st1{fill:#FFFFFF;}
	.st2{fill:#C6C6C6;}
</style>
<g>
	<g>
		<path class="st0" d="M1058.8,1651c-43.8,0-65.8-14.6-65.8-80.4c0-73.1,73.1-241.1,211.9-489.6c95-160.8,211.9-314.2,306.9-475
			h-438.4c-80.4,138.8-160.8,292.3-241.1,431.1c-109.6,204.6-160.8,350.7-160.8,438.4c0,116.9,29.2,197.3,95,241.1
			c0,0,126.8,92.1,321.5,0c109.6-43.8,233.8-146.1,358-285c58.5-58.5,131.5-146.1,211.9-248.4v-43.8
			C1387.6,1490.3,1183.1,1651,1058.8,1651z"/>
		<circle class="st0" cx="1461.1" cy="264.7" r="226.9"/>
	</g>
	<g>
		<path class="st1" d="M2338.1,608.3c299,0,491,164.2,491,474c0,364-216.9,684.6-604.1,684.6c-309.8,0-491-178.1-491-489.5
			C1734.1,919.7,1964.8,608.3,2338.1,608.3z M2228.2,1562.5c238.6,0,357.8-254,357.8-463.2c0-154.9-68.1-286.6-246.3-286.6
			c-249.4,0-362.5,252.5-362.5,464.7C1977.2,1429.3,2051.6,1562.5,2228.2,1562.5z"/>
		<path class="st1" d="M2953,939.8h210.7l-24.8,113.1h3.1c66.6-89.8,165.7-134.8,280.4-134.8c96,0,175,43.4,193.6,139.4
			c54.2-82.1,168.8-139.4,271.1-139.4c125.5,0,243.2,65.1,243.2,202.9c0,49.6-13.9,100.7-23.2,148.7l-99.1,470.9h-220l105.3-506.5
			c3.1-23.2,6.2-41.8,6.2-57.3c0-48-40.3-85.2-96-85.2c-117.7,0-184.3,122.4-206,220l-89.8,429.1h-221.5l105.3-506.5
			c3.1-23.2,6.2-41.8,6.2-57.3c0-48-40.3-85.2-96-85.2c-117.7,0-184.3,122.4-206,220l-89.8,429.1h-219.9L2953,939.8z"/>
		<path class="st1" d="M4280.5,939.8h210.7l-24.8,111.5h3.1c71.3-88.3,165.7-133.2,280.4-133.2c151.8,0,233.9,75.9,233.9,215.3
			c0,32.5-17,110-23.2,137.9l-99.1,469.4h-220l97.6-469.4c6.2-23.2,13.9-75.9,13.9-97.6c0-48-54.2-82.1-105.3-82.1
			c-133.2,0-201.4,111.5-224.6,223.1l-89.8,426h-219.9L4280.5,939.8z"/>
		<path class="st1" d="M5152.5,939.8H5374l-170.4,800.8h-221.5L5152.5,939.8z M5398.8,815.9h-221.5l40.3-181.2H5439L5398.8,815.9z"
			/>
		<path class="st0" d="M5552.1,634.6h244.7l-89.8,424.4h447.7l89.8-424.4h244.7l-233.9,1106h-244.7l100.7-477.1h-447.6l-100.7,477.1
			h-244.7L5552.1,634.6z"/>
		<path class="st0" d="M7135.1,1740.6h-210.7l24.8-111.5h-3.1c-71.3,88.3-165.7,133.2-280.4,133.2c-151.8,0-233.9-75.9-233.9-215.3
			c0-32.5,17.1-110,23.2-137.9l99.1-469.3h220l-97.6,469.3c-6.2,23.2-13.9,75.9-13.9,97.6c0,48,54.2,82.1,105.3,82.1
			c133.2,0,201.4-111.5,224.6-223.1l89.8-426h220L7135.1,1740.6z"/>
		<path class="st0" d="M7477.4,634.6h219.9l-82.1,390.3h3.1c68.2-74.4,131.7-106.9,237-106.9c202.9,0,288.1,154.9,288.1,340.8
			c0,247.8-142.5,503.4-415.1,503.4c-110,0-212.2-35.6-250.9-147.2h-3.1l-26.3,125.5H7245L7477.4,634.6z M7528.5,1427.7
			c0,97.6,58.9,168.8,159.5,168.8c165.7,0,235.5-196.7,235.5-334.6c0-100.7-43.4-178.1-156.5-178.1
			C7595.1,1083.8,7528.5,1285.2,7528.5,1427.7z"/>
	</g>
	<g>
		<path class="st2" d="M735.3,2108.4c-1.8,35.7,22.6,46.7,54.4,46.7c22.3,0,48.1-10.6,48.1-35.7c0-24.8-32.5-29.7-64-39.2
			c-31.8-9.9-63.6-24.4-63.6-67.9c0-56.2,51.3-78.5,100-78.5c51.6,0,94.7,23,94.7,81.3h-52.7c1.1-28.3-19.4-38.2-45.2-38.2
			c-21.2,0-44.2,8.1-44.2,31.5c0,25.1,42.8,31.4,60.1,35.7c39.6,10.3,67.5,25.5,67.5,70.7c0,60.4-54.8,83.4-102.9,83.4
			c-69.6,0-105-29-105-89.8H735.3z"/>
		<path class="st2" d="M961.8,2113c-0.4,4.6-0.4,7.8-0.4,10.6c0,21.2,13.1,35.7,40.3,35.7c20.1,0,30-13.5,37.5-25.1h50.2
			c-15.9,41-42.1,62.9-94.7,62.9c-48.8,0-81.3-27.9-81.3-79.9c0-58.3,38.5-112.8,100.7-112.8c50.9,0,85.2,26.9,85.2,79.9
			c0,9.9-1.1,19.8-2.8,28.6H961.8z M1050.9,2081.2c0-18.7-4.6-38.9-33.9-38.9c-28.3,0-42.4,18.4-49.8,38.9H1050.9z"/>
		<path class="st2" d="M1133.9,2064.9c6.4-46,45.2-60.4,86.6-60.4c32.5,0,76.7,7.1,76,48.1c0,7.8-1.8,19.4-3.9,30.8l-16.3,73.5
			c-1.8,6.4-2.5,17.7-2.5,24.8c0,3.2,0.7,7.4,1.8,10.6h-50.2v-18c-13.8,15.6-35.4,23-55.8,23c-39.9,0-59.4-22.6-59.4-48.1
			c0-35,26.5-56.9,70-62.2c47.4-5.6,69.6-3.2,69.6-26.5c0-18-19.1-22.3-31.8-22.3c-18,0-33.9,8.5-37.1,26.9H1133.9z M1240,2104.5
			c-12.7,7.4-27.9,7.8-42.4,8.8c-19.1,2.1-37.1,6.7-37.1,29.7c0,13.8,13.1,20.5,27.6,20.5c31.1,0,41.4-21.6,47-41.3L1240,2104.5z"/>
		<path class="st2" d="M1349.5,2009.4h48.1l-5.6,25.8h0.7c15.2-20.5,37.8-30.8,64-30.8c21.9,0,39.9,9.9,44.2,31.8
			c12.4-18.7,38.5-31.8,61.9-31.8c28.6,0,55.5,14.8,55.5,46.3c0,11.3-3.2,23-5.3,33.9l-22.6,107.5H1540l24-115.6
			c0.7-5.3,1.4-9.6,1.4-13.1c0-10.9-9.2-19.4-21.9-19.4c-26.9,0-42.1,27.9-47,50.2l-20.5,97.9h-50.5l24-115.6
			c0.7-5.3,1.4-9.6,1.4-13.1c0-10.9-9.2-19.4-21.9-19.4c-26.9,0-42.1,27.9-47,50.2l-20.5,97.9h-50.2L1349.5,2009.4z"/>
		<path class="st2" d="M1685.6,1939.8h50.2l-53.7,252.4h-50.2L1685.6,1939.8z"/>
		<path class="st2" d="M1779.6,2113c-0.4,4.6-0.4,7.8-0.4,10.6c0,21.2,13.1,35.7,40.3,35.7c20.1,0,30-13.5,37.5-25.1h50.2
			c-15.9,41-42.1,62.9-94.7,62.9c-48.8,0-81.3-27.9-81.3-79.9c0-58.3,38.5-112.8,100.7-112.8c50.9,0,85.2,26.9,85.2,79.9
			c0,9.9-1.1,19.8-2.8,28.6H1779.6z M1868.7,2081.2c0-18.7-4.6-38.9-33.9-38.9c-28.3,0-42.4,18.4-49.8,38.9H1868.7z"/>
		<path class="st2" d="M2054.9,2062.8c-0.4-15.6-9.2-24.7-28.3-24.7c-17.7,0-30.7,4.9-30.7,18c0,8.1,6,13.1,23,18.4l25.1,8.1
			c26.9,8.8,48.1,21.6,48.1,52.3c0,45.2-44.9,62.2-87,62.2c-35.7,0-77.8-14.2-77.8-56.9v-7.4h46.7v6c0,16.6,18.7,24.8,36.1,24.8
			c15.2,0,31.8-5.3,31.8-21.9c0-12.7-7.1-16.6-18-20.1l-38.5-12.4c-25.1-8.1-39.6-18-39.6-46.7c0-43.1,45.6-58,80.9-58
			c39.9,0,75.6,11.3,74.9,58.3H2054.9z"/>
		<path class="st2" d="M2238.3,2062.8c-0.4-15.6-9.2-24.7-28.3-24.7c-17.7,0-30.7,4.9-30.7,18c0,8.1,6,13.1,23,18.4l25.1,8.1
			c26.9,8.8,48.1,21.6,48.1,52.3c0,45.2-44.9,62.2-87,62.2c-35.7,0-77.8-14.2-77.8-56.9v-7.4h46.7v6c0,16.6,18.7,24.8,36.1,24.8
			c15.2,0,31.8-5.3,31.8-21.9c0-12.7-7.1-16.6-18-20.1l-38.5-12.4c-25.1-8.1-39.6-18-39.6-46.7c0-43.1,45.6-58,80.9-58
			c39.9,0,75.6,11.3,74.9,58.3H2238.3z"/>
		<path class="st2" d="M2592.1,2027.4c0-31.1-18.7-47-45.2-47c-56.9,0-82.7,57.6-82.7,106c0,34.7,17,65.1,57.3,65.1
			c30.7,0,54.4-23.7,59.4-50.2h55.5c-22.6,70.3-60.8,96.8-115.6,96.8c-70.7,0-112-40.6-112-111.7c0-81.6,52.7-152.7,137.9-152.7
			c58.3,0,102.5,32.1,101.1,93.7H2592.1z"/>
		<path class="st2" d="M2766,2004.5c50.2,0,85.2,24.8,85.2,77.4c0,64.3-39.9,115.2-106.4,115.2c-50.9,0-83.8-26.5-83.8-78.8
			C2661,2056.4,2700.9,2004.5,2766,2004.5z M2747.2,2159.3c37.5,0,53.7-46,53.7-76.7c0-24.4-10.6-40.3-36.8-40.3
			c-36.8,0-53,45.2-53,76C2711.2,2139.9,2723.6,2159.3,2747.2,2159.3z"/>
		<path class="st2" d="M2901,2009.4h48.1l-5.6,25.5h0.7c16.3-20.1,37.8-30.4,64-30.4c34.6,0,53.4,17.3,53.4,49.1
			c0,7.4-3.9,25.1-5.3,31.4l-22.6,107.1h-50.2l22.3-107.1c1.4-5.3,3.2-17.3,3.2-22.3c0-10.9-12.4-18.7-24-18.7
			c-30.4,0-46,25.5-51.3,50.9l-20.5,97.2h-50.2L2901,2009.4z"/>
		<path class="st2" d="M3116.9,2009.4h48.1l-5.6,25.5h0.7c16.3-20.1,37.8-30.4,64-30.4c34.6,0,53.4,17.3,53.4,49.1
			c0,7.4-3.9,25.1-5.3,31.4l-22.6,107.1h-50.2l22.3-107.1c1.4-5.3,3.2-17.3,3.2-22.3c0-10.9-12.4-18.7-24-18.7
			c-30.4,0-46,25.5-51.3,50.9l-20.5,97.2h-50.2L3116.9,2009.4z"/>
		<path class="st2" d="M3350.9,2113c-0.4,4.6-0.4,7.8-0.4,10.6c0,21.2,13.1,35.7,40.3,35.7c20.1,0,30-13.5,37.5-25.1h50.2
			c-15.9,41-42.1,62.9-94.7,62.9c-48.8,0-81.3-27.9-81.3-79.9c0-58.3,38.5-112.8,100.7-112.8c50.9,0,85.2,26.9,85.2,79.9
			c0,9.9-1.1,19.8-2.8,28.6H3350.9z M3439.9,2081.2c0-18.7-4.6-38.9-33.9-38.9c-28.3,0-42.4,18.4-49.8,38.9H3439.9z"/>
		<path class="st2" d="M3640.3,2072.7c0-21.6-11.7-30.4-33.6-30.4c-38.2,0-51.2,46-51.2,77.4c0,21.9,9.2,39.6,34.6,39.6
			c22.3,0,35-15.9,40.6-33.9h50.2c-15.2,45.6-47,71.8-94.4,71.8c-50.9,0-81.3-25.1-81.3-78.5c0-62.2,37.5-114.2,103.2-114.2
			c44.5,0,80.9,19.8,82,68.2H3640.3z"/>
		<path class="st2" d="M3796.5,2009.4h36l-7.8,33.6h-35.7l-18.7,90.8c-0.7,3.9-1.4,7.1-1.4,8.5c0,13.1,9.6,13.4,17,13.4
			c6,0,12-0.4,18-1.1l-8.5,38.9c-10.2,1.1-20.8,1.8-31.5,1.8c-23.3,0-48.4-7.4-47.7-37.1c0-4.6,1.1-11,2.5-17.3l20.5-97.9h-32.9
			l7.8-33.6h32.2l11.3-55.5h50.2L3796.5,2009.4z"/>
		<path class="st2" d="M3863.7,2009.4h50.5l-38.9,182.8h-50.6L3863.7,2009.4z M3919.9,1981.1h-50.6l9.2-41.3h50.5L3919.9,1981.1z"/>
		<path class="st2" d="M4029.1,2004.5c50.2,0,85.2,24.8,85.2,77.4c0,64.3-39.9,115.2-106.4,115.2c-50.9,0-83.8-26.5-83.8-78.8
			C3924.1,2056.4,3964,2004.5,4029.1,2004.5z M4010.3,2159.3c37.5,0,53.7-46,53.7-76.7c0-24.4-10.6-40.3-36.7-40.3
			c-36.8,0-53,45.2-53,76C3974.3,2139.9,3986.6,2159.3,4010.3,2159.3z"/>
		<path class="st2" d="M4164,2009.4h48.1l-5.6,25.5h0.7c16.3-20.1,37.8-30.4,64-30.4c34.7,0,53.4,17.3,53.4,49.1
			c0,7.4-3.9,25.1-5.3,31.4l-22.6,107.1h-50.2l22.3-107.1c1.4-5.3,3.2-17.3,3.2-22.3c0-10.9-12.4-18.7-24-18.7
			c-30.4,0-46,25.5-51.2,50.9l-20.5,97.2h-50.2L4164,2009.4z"/>
		<path class="st2" d="M4470.5,2062.8c-0.4-15.6-9.2-24.7-28.3-24.7c-17.7,0-30.8,4.9-30.8,18c0,8.1,6,13.1,23,18.4l25.1,8.1
			c26.9,8.8,48.1,21.6,48.1,52.3c0,45.2-44.9,62.2-87,62.2c-35.7,0-77.8-14.2-77.8-56.9v-7.4h46.7v6c0,16.6,18.7,24.8,36,24.8
			c15.2,0,31.8-5.3,31.8-21.9c0-12.7-7.1-16.6-18-20.1l-38.5-12.4c-25.1-8.1-39.6-18-39.6-46.7c0-43.1,45.6-58,80.9-58
			c39.9,0,75.6,11.3,74.9,58.3H4470.5z"/>
		<path class="st2" d="M4536.2,2137.7h55.9c-12.7,50.9-9.9,111-79.5,113.5l5.3-25.1c20.8-3.5,27.6-13.8,31.4-33.9h-24.4
			L4536.2,2137.7z"/>
		<path class="st2" d="M4777.6,1939.8h192.7l-9.6,46.7h-137.2l-11.3,54.1h126.9l-9.2,43.1H4803l-13.1,61.8h139.3l-9.9,46.7h-194.8
			L4777.6,1939.8z"/>
		<path class="st2" d="M4995.6,2009.4h48.1l-5.6,25.5h0.7c16.3-20.1,37.8-30.4,64-30.4c34.7,0,53.4,17.3,53.4,49.1
			c0,7.4-3.9,25.1-5.3,31.4l-22.6,107.1H5078l22.3-107.1c1.4-5.3,3.2-17.3,3.2-22.3c0-10.9-12.4-18.7-24-18.7
			c-30.4,0-46,25.5-51.2,50.9l-20.5,97.2h-50.2L4995.6,2009.4z"/>
		<path class="st2" d="M5306.3,2169.5l-0.7-0.7c-11.3,19.8-32.5,28.3-54.8,28.3c-43.8,0-69.6-28.3-69.6-72.1
			c0-60.1,32.1-120.5,99.7-120.5c21.2,0,43.5,9.2,51.3,29.3h0.7l20.2-94h50.2l-53.4,252.4h-48.4L5306.3,2169.5z M5231.4,2118.6
			c0,21.9,12,40.7,35.7,40.7c37.5,0,55.1-46,55.1-77.4c0-23.3-11.7-39.6-36-39.6C5248.3,2042.3,5231.4,2086.5,5231.4,2118.6z"/>
		<path class="st2" d="M5443,1939.8h50.2l-53.7,252.4h-50.2L5443,1939.8z"/>
		<path class="st2" d="M5537,2113c-0.4,4.6-0.4,7.8-0.4,10.6c0,21.2,13.1,35.7,40.3,35.7c20.1,0,30-13.5,37.5-25.1h50.2
			c-15.9,41-42.1,62.9-94.7,62.9c-48.8,0-81.3-27.9-81.3-79.9c0-58.3,38.5-112.8,100.7-112.8c50.9,0,85.2,26.9,85.2,79.9
			c0,9.9-1.1,19.8-2.8,28.6H5537z M5626.1,2081.2c0-18.7-4.6-38.9-33.9-38.9c-28.3,0-42.4,18.4-49.9,38.9H5626.1z"/>
		<path class="st2" d="M5812.3,2062.8c-0.3-15.6-9.2-24.7-28.3-24.7c-17.7,0-30.8,4.9-30.8,18c0,8.1,6,13.1,23,18.4l25.1,8.1
			c26.9,8.8,48.1,21.6,48.1,52.3c0,45.2-44.9,62.2-87,62.2c-35.7,0-77.8-14.2-77.8-56.9v-7.4h46.7v6c0,16.6,18.7,24.8,36,24.8
			c15.2,0,31.8-5.3,31.8-21.9c0-12.7-7.1-16.6-18-20.1l-38.5-12.4c-25.1-8.1-39.6-18-39.6-46.7c0-43.1,45.6-58,80.9-58
			c40,0,75.6,11.3,74.9,58.3H5812.3z"/>
		<path class="st2" d="M5995.8,2062.8c-0.3-15.6-9.2-24.7-28.3-24.7c-17.7,0-30.8,4.9-30.8,18c0,8.1,6,13.1,23,18.4l25.1,8.1
			c26.9,8.8,48.1,21.6,48.1,52.3c0,45.2-44.9,62.2-87,62.2c-35.7,0-77.8-14.2-77.8-56.9v-7.4h46.7v6c0,16.6,18.7,24.8,36,24.8
			c15.2,0,31.8-5.3,31.8-21.9c0-12.7-7.1-16.6-18-20.1l-38.5-12.4c-25.1-8.1-39.6-18-39.6-46.7c0-43.1,45.6-58,80.9-58
			c39.9,0,75.6,11.3,74.9,58.3H5995.8z"/>
		<path class="st2" d="M6204.3,1939.8h101.1c50.9,0.4,87.7,17.7,87.7,73.5s-46,88.4-98.3,88.4h-68.6l-19.1,90.5h-55.5L6204.3,1939.8
			z M6235.4,2058.6h56.6c27.9,0,45.6-14.1,45.6-44.2c0-25.5-19.8-31.5-39.2-31.5h-47.4L6235.4,2058.6z"/>
		<path class="st2" d="M6497.3,2004.5c50.2,0,85.2,24.8,85.2,77.4c0,64.3-39.9,115.2-106.4,115.2c-50.9,0-83.8-26.5-83.8-78.8
			C6392.3,2056.4,6432.2,2004.5,6497.3,2004.5z M6478.5,2159.3c37.5,0,53.7-46,53.7-76.7c0-24.4-10.6-40.3-36.8-40.3
			c-36.8,0-53,45.2-53,76C6442.5,2139.9,6454.9,2159.3,6478.5,2159.3z"/>
		<path class="st2" d="M6722.7,2062.8c-0.3-15.6-9.2-24.7-28.3-24.7c-17.7,0-30.8,4.9-30.8,18c0,8.1,6,13.1,23,18.4l25.1,8.1
			c26.9,8.8,48.1,21.6,48.1,52.3c0,45.2-44.9,62.2-87,62.2c-35.7,0-77.8-14.2-77.8-56.9v-7.4h46.7v6c0,16.6,18.7,24.8,36,24.8
			c15.2,0,31.8-5.3,31.8-21.9c0-12.7-7.1-16.6-18-20.1l-38.5-12.4c-25.1-8.1-39.6-18-39.6-46.7c0-43.1,45.6-58,80.9-58
			c39.9,0,75.6,11.3,74.9,58.3H6722.7z"/>
		<path class="st2" d="M6906.2,2062.8c-0.4-15.6-9.2-24.7-28.3-24.7c-17.7,0-30.8,4.9-30.8,18c0,8.1,6,13.1,23,18.4l25.1,8.1
			c26.9,8.8,48.1,21.6,48.1,52.3c0,45.2-44.9,62.2-87,62.2c-35.7,0-77.8-14.2-77.8-56.9v-7.4h46.7v6c0,16.6,18.7,24.8,36,24.8
			c15.2,0,31.8-5.3,31.8-21.9c0-12.7-7.1-16.6-18-20.1l-38.5-12.4c-25.1-8.1-39.6-18-39.6-46.7c0-43.1,45.6-58,80.9-58
			c39.9,0,75.6,11.3,74.9,58.3H6906.2z"/>
		<path class="st2" d="M6999.8,2009.4h50.6l-38.9,182.8h-50.5L6999.8,2009.4z M7056,1981.1h-50.5l9.2-41.3h50.6L7056,1981.1z"/>
		<path class="st2" d="M7105.5,1939.8h50.2l-18.7,89.1h0.7c15.6-17,30-24.4,54.1-24.4c46.3,0,65.7,35.3,65.7,77.8
			c0,56.5-32.5,114.9-94.7,114.9c-25.1,0-48.4-8.1-57.3-33.6h-0.7l-6,28.6h-46.3L7105.5,1939.8z M7117.1,2120.8
			c0,22.3,13.4,38.5,36.4,38.5c37.8,0,53.7-44.9,53.7-76.4c0-23-9.9-40.7-35.7-40.7C7132.3,2042.3,7117.1,2088.2,7117.1,2120.8z"/>
		<path class="st2" d="M7307.2,2009.4h50.6l-38.9,182.8h-50.5L7307.2,2009.4z M7363.5,1981.1h-50.5l9.2-41.3h50.6L7363.5,1981.1z"/>
		<path class="st2" d="M7413.6,1939.8h50.2l-53.7,252.4h-50.2L7413.6,1939.8z"/>
		<path class="st2" d="M7490.3,2009.4h50.6l-38.9,182.8h-50.5L7490.3,2009.4z M7546.5,1981.1H7496l9.2-41.3h50.6L7546.5,1981.1z"/>
		<path class="st2" d="M7645.5,2009.4h36l-7.8,33.6h-35.7l-18.7,90.8c-0.7,3.9-1.4,7.1-1.4,8.5c0,13.1,9.5,13.4,16.9,13.4
			c6,0,12-0.4,18-1.1l-8.5,38.9c-10.3,1.1-20.8,1.8-31.5,1.8c-23.3,0-48.4-7.4-47.7-37.1c0-4.6,1-11,2.5-17.3l20.5-97.9h-32.9
			l7.8-33.6h32.2l11.3-55.5h50.2L7645.5,2009.4z"/>
		<path class="st2" d="M7712.6,2009.4h50.6l-38.9,182.8h-50.5L7712.6,2009.4z M7768.8,1981.1h-50.5l9.2-41.3h50.6L7768.8,1981.1z"/>
		<path class="st2" d="M7821.5,2113c-0.4,4.6-0.4,7.8-0.4,10.6c0,21.2,13.1,35.7,40.3,35.7c20.1,0,30-13.5,37.5-25.1h50.2
			c-15.9,41-42.1,62.9-94.7,62.9c-48.8,0-81.3-27.9-81.3-79.9c0-58.3,38.5-112.8,100.7-112.8c50.9,0,85.2,26.9,85.2,79.9
			c0,9.9-1.1,19.8-2.8,28.6H7821.5z M7910.5,2081.2c0-18.7-4.6-38.9-33.9-38.9c-28.3,0-42.4,18.4-49.9,38.9H7910.5z"/>
		<path class="st2" d="M8096.8,2062.8c-0.3-15.6-9.2-24.7-28.3-24.7c-17.7,0-30.8,4.9-30.8,18c0,8.1,6,13.1,23,18.4l25.1,8.1
			c26.9,8.8,48.1,21.6,48.1,52.3c0,45.2-44.9,62.2-87,62.2c-35.7,0-77.8-14.2-77.8-56.9v-7.4h46.7v6c0,16.6,18.7,24.8,36,24.8
			c15.2,0,31.8-5.3,31.8-21.9c0-12.7-7.1-16.6-18-20.1l-38.5-12.4c-25.1-8.1-39.6-18-39.6-46.7c0-43.1,45.6-58,80.9-58
			c40,0,75.6,11.3,74.9,58.3H8096.8z"/>
	</g>
</g>
</svg>
