<?xml version="1.0" encoding="utf-8"?>
<!-- Generator: Adobe Illustrator 25.4.1, SVG Export Plug-In . SVG Version: 6.00 Build 0)  -->
<svg version="1.1" id="Layer_1" xmlns="http://www.w3.org/2000/svg" xmlns:xlink="http://www.w3.org/1999/xlink" x="0px" y="0px"
	 viewBox="0 0 1405 2289" style="enable-background:new 0 0 1405 2289;" xml:space="preserve">
<style type="text/css">
	.st0{fill:#E92D2F;}
</style>
<g>
	<path class="st0" d="M544.1,2131.1c-57.4,0-86.1-19.1-86.1-105.3c0-95.7,95.7-315.8,277.5-641.2c124.4-210.5,277.5-411.5,402-622.1
		H563.2C458,944.4,352.7,1145.3,247.4,1327.2c-143.6,268-210.5,459.4-210.5,574.2c0,153.1,38.3,258.4,124.4,315.8
		c0,0,166.1,120.6,421.1,0c143.6-57.4,306.3-191.4,468.9-373.2c76.6-76.6,172.3-191.4,277.5-325.4v-57.4
		C974.8,1920.5,706.8,2131.1,544.1,2131.1z"/>
	<circle class="st0" cx="1071" cy="315.4" r="297.2"/>
</g>
</svg>
